<?xml version="1.0" standalone="no"?>
<!DOCTYPE svg PUBLIC "-//W3C//DTD SVG 20010904//EN"
 "http://www.w3.org/TR/2001/REC-SVG-20010904/DTD/svg10.dtd">
<svg version="1.0" xmlns="http://www.w3.org/2000/svg"
 width="2048.000000pt" height="2048.000000pt" viewBox="0 0 2048.000000 2048.000000"
 preserveAspectRatio="xMidYMid meet">

<g transform="translate(0.000000,2048.000000) scale(0.100000,-0.100000)"
fill="#000000" stroke="none">
<path d="M0 10240 l0 -10240 10240 0 10240 0 0 10240 0 10240 -10240 0 -10240
0 0 -10240z m19440 10207 c484 -117 821 -422 969 -877 62 -189 61 -179 60
-1445 l0 -1150 -4974 0 c-2975 0 -4977 4 -4982 9 -5 5 -3 6 4 2 9 -5 11 -2 7
11 -5 15 -4 16 5 3 9 -13 11 -13 11 0 0 13 1 13 10 0 9 -13 10 -13 10 0 0 13
1 13 10 0 9 -13 10 -13 10 0 0 13 1 13 10 0 9 -13 10 -13 10 0 0 13 1 13 10 0
9 -13 10 -13 10 0 0 13 1 13 11 0 9 -12 12 -13 16 -1 5 11 7 11 14 0 7 -12 9
-11 9 1 0 13 1 13 10 0 9 -13 10 -13 10 0 0 13 1 13 10 0 9 -13 10 -13 10 0 0
13 1 13 10 0 9 -13 10 -13 10 0 0 13 1 13 10 0 9 -13 10 -13 10 0 0 13 1 13
10 0 9 -13 10 -13 10 0 0 13 1 13 10 0 9 -13 10 -13 10 0 0 13 1 13 10 0 8
-13 10 -13 10 -1 0 11 4 9 15 -5 15 -19 15 -19 30 0 11 15 15 16 16 5 0 -11 2
-11 6 0 5 11 7 11 14 0 7 -12 9 -11 9 1 0 13 1 13 10 0 9 -13 10 -13 10 0 0
13 1 13 10 0 9 -13 10 -13 10 0 0 13 1 13 10 0 9 -13 10 -13 10 0 0 13 1 13
10 0 9 -13 10 -13 10 0 0 13 1 13 10 0 9 -13 10 -13 10 0 0 13 1 13 10 0 9
-13 10 -13 10 0 0 13 1 13 11 0 9 -12 12 -13 16 -1 5 11 7 11 14 0 7 -12 9
-11 9 1 0 13 1 13 10 0 9 -13 10 -13 10 0 0 13 1 13 10 0 9 -13 10 -13 10 0 0
13 1 13 10 0 9 -13 10 -13 10 0 0 13 1 13 10 0 9 -13 10 -13 10 0 0 13 1 13
10 0 9 -13 10 -13 10 0 0 13 1 13 10 0 9 -13 10 -13 10 0 0 13 1 13 10 0 9
-13 10 -13 10 0 0 13 1 13 11 0 9 -12 12 -13 16 -1 5 11 7 11 14 0 7 -12 9
-11 9 1 0 13 1 13 10 0 9 -13 10 -13 10 0 0 13 1 13 10 0 9 -13 10 -13 10 0 0
13 1 13 10 0 9 -13 10 -13 10 0 0 13 1 13 10 0 9 -13 10 -13 10 0 0 13 1 13
10 0 9 -13 10 -13 10 0 0 13 1 13 10 0 9 -13 10 -13 10 0 0 13 1 13 10 0 8
-13 10 -13 10 -1 0 11 4 9 15 -5 15 -19 15 -19 30 0 11 15 15 16 16 5 0 -11 2
-11 6 0 5 11 7 11 14 0 7 -12 9 -11 9 1 0 13 1 13 10 0 9 -13 10 -13 10 0 0
13 1 13 10 0 9 -13 10 -13 10 0 0 13 1 13 10 0 9 -13 10 -13 10 0 0 13 1 13
10 0 9 -13 10 -13 10 0 0 13 1 13 10 0 9 -13 10 -13 10 0 0 13 1 13 10 0 9
-13 10 -13 10 0 0 13 1 13 11 0 9 -12 12 -13 16 -1 5 11 7 11 14 0 7 -12 9
-11 9 1 0 13 1 13 10 0 9 -13 10 -13 10 0 0 13 1 13 10 0 9 -13 10 -13 10 0 0
13 1 13 10 0 9 -13 10 -13 10 0 0 13 1 13 10 0 9 -13 10 -13 10 0 0 13 1 13
10 0 9 -13 10 -13 10 0 0 13 1 13 10 0 9 -13 10 -13 10 0 0 13 1 13 10 0 8
-13 10 -13 10 -1 0 11 4 9 15 -5 15 -19 15 -19 30 0 11 15 15 16 16 5 0 -11 2
-11 6 0 5 11 7 11 14 0 7 -12 9 -11 9 1 0 13 1 13 10 0 9 -13 10 -13 10 0 0
13 1 13 10 0 9 -13 10 -13 10 0 0 13 1 13 10 0 9 -13 10 -13 10 0 0 13 1 13
10 0 9 -13 10 -13 10 0 0 13 1 13 10 0 9 -13 10 -13 10 0 0 13 1 13 10 0 9
-13 10 -13 10 0 0 13 1 13 11 0 9 -12 12 -13 16 -1 5 11 7 11 14 0 7 -12 9
-11 9 1 0 13 1 13 10 0 9 -13 10 -13 10 0 0 13 1 13 10 0 9 -13 10 -13 10 0 0
13 1 13 10 0 9 -13 10 -13 10 0 0 13 1 13 10 0 9 -13 10 -13 10 0 0 13 1 13
10 0 9 -13 10 -13 10 0 0 13 1 13 10 0 9 -13 10 -13 10 0 0 13 1 13 10 0 8
-13 10 -13 10 -1 0 11 4 9 15 -5 15 -19 15 -19 30 0 11 15 15 16 16 5 0 -11 2
-11 6 0 5 11 7 11 14 0 7 -12 9 -11 9 1 0 13 1 13 10 0 9 -13 10 -13 10 0 0
13 1 13 10 0 9 -13 10 -13 10 0 0 13 1 13 10 0 9 -13 10 -13 10 0 0 13 1 13
10 0 9 -13 10 -13 10 0 0 13 1 13 10 0 9 -13 10 -13 10 0 0 13 1 13 10 0 9
-13 10 -13 10 0 0 13 1 13 11 0 9 -12 12 -13 16 -1 5 11 7 11 14 0 7 -12 9
-11 9 1 0 13 1 13 10 0 9 -13 10 -13 10 0 0 13 1 13 10 0 9 -13 10 -13 10 0 0
13 1 13 10 0 9 -13 10 -13 10 0 0 13 1 13 10 0 9 -13 10 -13 10 0 0 13 1 13
10 0 9 -13 10 -13 10 0 0 13 1 13 10 0 9 -13 10 -13 10 0 0 13 1 13 10 0 8
-13 10 -13 10 -1 0 11 4 9 15 -5 15 -19 15 -19 30 0 11 15 15 16 16 5 0 -11 2
-11 6 0 5 11 7 11 14 0 7 -12 9 -11 9 1 0 13 1 13 10 0 9 -13 10 -13 10 0 0
13 1 13 10 0 9 -13 10 -13 10 0 0 13 1 13 10 0 9 -13 10 -13 10 0 0 13 1 13
10 0 9 -13 10 -13 10 0 0 13 1 13 10 0 8 -13 10 -13 10 -1 0 11 4 9 15 -5 15
-19 15 -19 30 0 11 15 15 16 16 5 0 -11 2 -11 6 0 5 11 7 11 14 0 7 -12 9 -11
9 1 0 13 1 13 10 0 9 -13 10 -13 10 0 0 13 1 13 10 0 9 -13 10 -13 10 0 0 13
1 13 10 0 9 -13 10 -13 10 0 0 13 1 13 10 0 9 -13 10 -13 10 0 0 13 1 13 10 0
9 -13 10 -13 10 0 0 13 1 13 10 0 9 -13 10 -13 10 0 0 13 1 13 11 0 9 -12 12
-13 16 -1 5 11 7 11 14 0 7 -12 9 -11 9 1 0 13 1 13 10 0 9 -13 10 -13 10 0 0
13 1 13 10 0 9 -13 10 -13 10 0 0 13 1 13 10 0 9 -13 10 -13 10 0 0 13 1 13
10 0 9 -13 10 -13 10 0 0 13 1 13 10 0 9 -13 10 -13 10 0 0 13 1 13 10 0 9
-13 10 -13 10 0 0 13 1 13 10 0 8 -13 10 -13 10 -1 0 11 4 9 15 -5 15 -19 15
-19 30 0 11 15 15 16 16 5 0 -11 2 -11 6 0 5 11 7 11 14 0 7 -12 9 -11 9 1 0
13 1 13 10 0 9 -13 10 -13 10 0 0 13 1 13 10 0 9 -13 10 -13 10 0 0 13 1 13
10 0 9 -13 10 -13 10 0 0 13 1 13 10 0 9 -13 10 -13 10 0 0 13 1 13 10 0 9
-13 10 -13 10 0 0 13 1 13 10 0 9 -13 10 -13 10 0 0 13 1 13 11 0 9 -12 12
-13 16 -1 5 11 7 11 14 0 7 -12 9 -11 9 1 0 13 1 13 10 0 9 -13 10 -13 10 0 0
13 1 13 10 0 9 -13 10 -13 10 0 0 13 1 13 10 0 9 -13 10 -13 10 0 0 13 1 13
10 0 9 -13 10 -13 10 0 0 13 1 13 10 0 9 -13 10 -13 10 0 0 13 1 13 10 0 9
-13 10 -13 10 0 0 13 1 13 10 0 8 -13 10 -13 10 -1 0 11 4 9 15 -5 15 -19 15
-19 30 0 11 15 15 16 16 5 0 -11 2 -11 6 0 5 11 7 11 14 0 7 -12 9 -11 9 1 0
13 1 13 10 0 9 -13 10 -13 10 0 0 13 1 13 10 0 9 -13 10 -13 10 0 0 13 1 13
10 0 9 -13 10 -13 10 0 0 13 1 13 10 0 9 -13 10 -13 10 0 0 13 1 13 10 0 9
-13 10 -13 10 0 0 13 1 13 10 0 9 -13 10 -13 10 0 0 13 1 13 11 0 9 -12 12
-13 16 -1 5 11 7 11 14 0 7 -12 9 -11 9 1 0 13 1 13 10 0 9 -13 10 -13 10 0 0
13 1 13 10 0 9 -13 10 -13 10 0 0 13 1 13 10 0 9 -13 10 -13 10 0 0 13 1 13
10 0 9 -13 10 -13 10 0 0 13 1 13 10 0 9 -13 10 -13 10 0 0 13 1 13 10 0 9
-13 10 -13 10 0 0 13 1 13 10 0 8 -13 10 -13 10 -1 0 11 4 9 15 -5 15 -19 15
-19 30 0 11 15 15 16 16 5 0 -11 2 -11 6 0 5 11 7 11 14 0 7 -12 9 -11 9 1 0
13 1 13 10 0 9 -13 10 -13 10 0 0 13 1 13 10 0 9 -13 10 -13 10 0 0 13 1 13
10 0 9 -13 10 -13 10 0 0 13 1 13 10 0 9 -13 10 -13 10 0 0 13 1 13 10 0 9
-13 10 -13 10 0 0 13 1 13 10 0 9 -13 10 -13 10 0 0 13 1 13 11 0 9 -12 12
-13 16 -1 5 11 7 11 14 0 7 -12 9 -11 9 1 0 13 1 13 10 0 9 -13 10 -13 10 0 0
13 1 13 10 0 9 -13 10 -13 10 0 0 13 1 13 10 0 9 -13 10 -13 10 0 0 13 1 13
10 0 9 -13 10 -13 10 0 0 13 1 13 10 0 9 -13 10 -13 10 0 0 13 1 13 10 0 9
-13 10 -13 10 0 0 13 1 13 10 0 8 -13 10 -13 10 -1 0 11 4 9 15 -5 15 -19 15
-19 30 0 11 15 15 16 16 5 0 -11 2 -11 6 0 5 11 7 11 14 0 7 -12 9 -11 9 1 0
13 1 13 10 0 9 -13 10 -13 10 0 0 13 1 13 10 0 9 -13 10 -13 10 0 0 13 1 13
10 0 9 -13 10 -13 10 0 0 13 1 13 10 0 9 -13 10 -13 10 0 0 13 1 13 10 0 8
-13 10 -13 10 -1 0 11 4 9 15 -5 15 -19 15 -19 30 0 11 15 15 16 16 5 0 -11 2
-11 6 0 5 11 7 11 14 0 7 -12 9 -11 9 1 0 13 1 13 10 0 9 -13 10 -13 10 0 0
13 1 13 10 0 9 -13 10 -13 10 0 0 13 1 13 10 0 9 -13 10 -13 10 0 0 13 1 13
10 0 9 -13 10 -13 10 0 0 13 1 13 10 0 9 -13 10 -13 10 0 0 13 1 13 10 0 9
-13 10 -13 10 0 0 13 1 13 11 0 9 -12 12 -13 16 -1 5 11 7 11 14 0 7 -12 9
-11 9 1 0 13 1 13 10 0 9 -13 10 -13 10 0 0 13 1 13 10 0 9 -13 10 -13 10 0 0
13 1 13 10 0 9 -13 10 -13 10 0 0 13 1 13 10 0 9 -13 10 -13 10 0 0 13 1 13
10 0 9 -13 10 -13 10 0 0 13 1 13 10 0 9 -13 10 -13 10 0 0 13 1 13 10 0 8
-13 10 -13 10 -1 0 11 4 9 15 -5 15 -19 15 -19 30 0 11 15 15 16 16 5 0 -11 2
-11 6 0 5 11 7 11 14 0 7 -12 9 -11 9 1 0 13 1 13 10 0 9 -13 10 -13 10 0 0
13 1 13 10 0 9 -13 10 -13 10 0 0 13 1 13 10 0 9 -13 10 -13 10 0 0 13 1 13
10 0 9 -13 10 -13 10 0 0 13 1 13 10 0 9 -13 10 -13 10 0 0 13 1 13 10 0 9
-13 10 -13 10 0 0 13 1 13 11 0 9 -12 12 -13 16 -1 5 11 7 11 14 0 7 -12 9
-11 9 1 0 13 1 13 10 0 9 -13 10 -13 10 0 0 13 1 13 10 0 9 -13 10 -13 10 0 0
13 1 13 10 0 9 -13 10 -13 10 0 0 13 1 13 10 0 9 -13 10 -13 10 0 0 13 1 13
10 0 9 -13 10 -13 10 0 0 13 1 13 10 0 9 -13 10 -13 10 0 0 13 1 13 10 0 8
-13 10 -13 10 -1 0 11 4 9 15 -5 15 -19 15 -19 30 0 11 15 15 16 16 5 0 -11 2
-11 6 0 5 11 7 11 14 0 7 -12 9 -11 9 1 0 13 1 13 10 0 9 -13 10 -13 10 0 0
13 1 13 10 0 9 -13 10 -13 10 0 0 13 1 13 10 0 9 -13 10 -13 10 0 0 13 1 13
10 0 9 -13 10 -13 10 0 0 13 1 13 10 0 9 -13 10 -13 10 0 0 13 1 13 10 0 9
-13 10 -13 10 0 0 13 1 13 11 0 9 -12 12 -13 16 -1 5 11 7 11 14 0 7 -12 9
-11 9 1 0 13 1 13 10 0 9 -13 10 -13 10 0 0 13 1 13 10 0 9 -13 10 -13 10 0 0
13 1 13 10 0 9 -13 10 -13 10 0 0 13 1 13 10 0 9 -13 10 -13 10 0 0 13 1 13
10 0 9 -13 10 -13 10 0 0 13 1 13 10 0 9 -13 10 -13 10 0 0 13 1 13 10 0 8
-13 10 -13 10 -1 0 11 4 9 15 -5 15 -19 15 -19 30 0 11 15 15 16 16 5 0 -11 2
-11 6 0 5 11 7 11 14 0 7 -12 9 -11 9 1 0 13 1 13 10 0 9 -13 10 -13 10 0 0
13 1 13 10 0 9 -13 10 -13 10 0 0 13 1 13 10 0 9 -13 10 -13 10 0 0 13 1 13
10 0 9 -13 10 -13 10 0 0 13 1 13 10 0 9 -13 10 -13 10 0 0 13 1 13 10 0 9
-13 10 -13 10 0 0 13 1 13 11 0 9 -12 12 -13 16 -1 5 11 7 11 14 0 7 -12 9
-11 9 1 0 13 1 13 10 0 9 -13 10 -13 10 0 0 13 1 13 10 0 9 -13 10 -13 10 0 0
13 1 13 10 0 9 -13 10 -13 10 0 0 13 1 13 10 0 9 -13 10 -13 10 0 0 13 1 13
10 0 9 -13 10 -13 10 0 0 13 1 13 10 0 9 -13 10 -13 10 0 0 13 1 13 10 0 8
-13 10 -13 10 -1 0 11 4 9 15 -5 15 -19 15 -19 30 0 11 15 15 16 16 5 0 -11 2
-11 6 0 5 11 7 11 14 0 7 -12 9 -11 9 1 0 13 1 13 10 0 9 -13 10 -13 10 0 0
13 1 13 10 0 9 -13 10 -13 10 0 0 13 1 13 10 0 9 -13 10 -13 10 0 0 13 1 13
10 0 9 -13 10 -13 10 0 0 13 1 13 10 0 8 -13 10 -13 10 -1 0 11 4 9 15 -5 15
-19 15 -19 30 0 11 15 15 16 16 5 0 -11 2 -11 6 0 5 11 7 11 14 0 7 -12 9 -11
9 1 0 13 1 13 10 0 9 -13 10 -13 10 0 0 13 1 13 10 0 9 -13 10 -13 10 0 0 13
1 13 10 0 9 -13 10 -13 10 0 0 13 1 13 10 0 9 -13 10 -13 10 0 0 13 1 13 10 0
9 -13 10 -13 10 0 0 13 1 13 10 0 9 -13 10 -13 10 0 0 13 1 13 11 0 9 -12 12
-13 16 -1 5 11 7 11 14 0 7 -12 9 -11 9 1 0 13 1 13 10 0 9 -13 10 -13 10 0 0
13 1 13 10 0 9 -13 10 -13 10 0 0 13 1 13 10 0 9 -13 10 -13 10 0 0 13 1 13
10 0 9 -13 10 -13 10 0 0 13 1 13 10 0 9 -13 10 -13 10 0 0 13 1 13 10 0 9
-13 10 -13 10 0 0 13 1 13 10 0 8 -13 10 -13 10 -1 0 11 4 9 15 -5 15 -19 15
-19 30 0 11 15 15 16 16 5 0 -11 2 -11 6 0 5 11 7 11 14 0 7 -12 9 -11 9 1 0
13 1 13 10 0 9 -13 10 -13 10 0 0 13 1 13 10 0 9 -13 10 -13 10 0 0 13 1 13
10 0 9 -13 10 -13 10 0 0 13 1 13 10 0 9 -13 10 -13 10 0 0 13 1 13 10 0 9
-13 10 -13 10 0 0 13 1 13 10 0 9 -13 10 -13 10 0 0 13 1 13 11 0 9 -12 12
-13 16 -1 5 11 7 11 14 0 7 -12 9 -11 9 1 0 13 1 13 10 0 9 -13 10 -13 10 0 0
13 1 13 10 0 9 -13 10 -13 10 0 0 13 1 13 10 0 9 -13 10 -13 10 0 0 13 1 13
10 0 9 -13 10 -13 10 0 0 13 1 13 10 0 9 -13 10 -13 10 0 0 13 1 13 10 0 9
-13 10 -13 10 0 0 13 1 13 10 0 8 -13 10 -13 10 -1 0 11 4 9 15 -5 15 -19 15
-19 30 0 11 15 15 16 16 5 0 -11 2 -11 6 0 5 11 7 11 14 0 7 -12 9 -11 9 1 0
13 1 13 10 0 9 -13 10 -13 10 0 0 13 1 13 10 0 9 -13 10 -13 10 0 0 13 1 13
10 0 9 -13 10 -13 10 0 0 13 1 13 10 0 9 -13 10 -13 10 0 0 13 1 13 10 0 9
-13 10 -13 10 0 0 13 1 13 10 0 9 -13 10 -13 10 0 0 13 1 13 11 0 9 -12 12
-13 16 -1 5 11 7 11 14 0 7 -12 9 -11 9 1 0 13 1 13 10 0 9 -13 10 -13 10 0 0
13 1 13 10 0 9 -13 10 -13 10 0 0 13 1 13 10 0 9 -13 10 -13 10 0 0 13 1 13
10 0 9 -13 10 -13 10 0 0 13 1 13 10 0 9 -13 10 -13 10 0 0 13 1 13 10 0 9
-13 10 -13 10 0 0 13 1 13 10 0 8 -13 10 -13 10 -1 0 11 4 9 15 -5 15 -19 15
-19 30 0 11 15 15 16 16 5 0 -11 2 -11 6 0 5 11 7 11 14 0 7 -12 9 -11 9 1 0
13 1 13 10 0 9 -13 10 -13 10 0 0 13 1 13 10 0 9 -13 10 -13 10 0 0 13 1 13
10 0 9 -13 10 -13 10 0 0 13 1 13 10 0 9 -13 10 -13 10 0 0 13 1 13 10 0 9
-13 10 -13 10 0 0 13 1 13 10 0 9 -13 10 -13 10 0 0 13 1 13 11 0 9 -12 12
-13 16 -1 5 11 7 11 14 0 7 -12 9 -11 9 1 0 13 1 13 10 0 9 -13 10 -13 10 0 0
13 1 13 10 0 9 -13 10 -13 10 0 0 13 1 13 10 0 9 -13 10 -13 10 0 0 13 1 13
10 0 9 -13 10 -13 10 0 0 13 1 13 10 0 9 -13 10 -13 10 0 0 13 1 13 10 0 9
-13 10 -13 10 0 0 13 1 13 10 0 9 -13 10 -13 10 0 0 13 1 13 11 0 9 -12 12
-13 16 -1 5 11 7 11 14 0 7 -12 9 -11 9 1 0 13 1 13 10 0 9 -13 10 -13 10 0 0
13 1 13 10 0 9 -13 10 -13 10 0 0 13 1 13 10 0 9 -13 10 -13 10 0 0 13 1 13
10 0 9 -13 10 -13 10 0 0 13 1 13 10 0 9 -13 10 -13 10 0 0 13 1 13 10 0 9
-13 10 -13 10 0 0 13 1 13 10 0 8 -13 10 -13 10 -1 0 11 4 9 15 -5 15 -19 15
-19 30 0 11 15 15 16 16 5 0 -11 2 -11 6 0 5 11 7 11 14 0 7 -12 9 -11 9 1 0
13 1 13 10 0 9 -13 10 -13 10 0 0 13 1 13 10 0 9 -13 10 -13 10 0 0 13 1 13
10 0 9 -13 10 -13 10 0 0 13 1 13 10 0 9 -13 10 -13 10 0 0 13 1 13 10 0 9
-13 10 -13 10 0 0 13 1 13 10 0 9 -13 10 -13 10 0 0 13 1 13 11 0 9 -12 12
-13 16 -1 5 11 7 11 14 0 7 -12 9 -11 9 1 0 13 1 13 10 0 9 -13 10 -13 10 0 0
13 1 13 10 0 9 -13 10 -13 10 0 0 13 1 13 10 0 9 -13 10 -13 10 0 0 13 1 13
10 0 9 -13 10 -13 10 0 0 13 1 13 10 0 9 -13 10 -13 10 0 0 13 1 13 10 0 9
-13 10 -13 10 0 0 13 1 13 10 0 8 -13 10 -13 10 -1 0 11 4 9 15 -5 15 -19 15
-19 30 0 11 15 15 16 16 5 0 -11 2 -11 6 0 5 11 7 11 14 0 7 -12 9 -11 9 1 0
13 1 13 10 0 9 -13 10 -13 10 0 0 13 1 13 10 0 9 -13 10 -13 10 0 0 13 1 13
10 0 9 -13 10 -13 10 0 0 13 1 13 10 0 9 -13 10 -13 10 0 0 13 1 13 10 0 9
-13 10 -13 10 0 0 13 1 13 10 0 9 -13 10 -13 10 0 0 13 1 13 11 0 9 -12 12
-13 16 -1 5 11 7 11 14 0 7 -12 9 -11 9 1 0 13 1 13 10 0 9 -13 10 -13 10 0 0
13 1 13 10 0 9 -13 10 -13 10 0 0 13 1 13 10 0 9 -13 10 -13 10 0 0 13 1 13
10 0 9 -13 10 -13 10 0 0 13 1 13 10 0 9 -13 10 -13 10 0 0 13 1 13 10 0 9
-13 10 -13 10 0 0 13 1 13 10 0 8 -13 10 -13 10 -1 0 11 4 9 15 -5 15 -19 15
-19 30 0 11 15 15 16 16 5 0 -11 2 -11 6 0 5 11 7 11 14 0 7 -12 9 -11 9 1 0
13 1 13 10 0 9 -13 10 -13 10 0 0 13 1 13 10 0 9 -13 10 -13 10 0 0 13 1 13
10 0 9 -13 10 -13 10 0 0 13 1 13 10 0 9 -13 10 -13 10 0 0 13 1 13 10 0 9
-13 10 -13 10 0 0 13 1 13 10 0 9 -13 10 -13 10 0 0 13 1 13 11 0 9 -12 12
-13 16 -1 5 11 7 11 14 0 7 -12 9 -11 9 1 0 13 1 13 10 0 9 -13 10 -13 10 0 0
13 1 13 10 0 9 -13 10 -13 10 0 0 13 1 13 10 0 9 -13 10 -13 10 0 0 13 1 13
10 0 9 -13 10 -13 10 0 0 13 1 13 10 0 9 -13 10 -13 10 0 0 13 1 13 10 0 9
-13 10 -13 10 0 0 13 1 13 10 0 8 -13 10 -13 10 -1 0 11 4 9 15 -5 15 -19 15
-19 30 0 11 15 15 16 16 5 0 -11 2 -11 6 0 5 11 7 11 14 0 7 -12 9 -11 9 1 0
13 1 13 10 0 9 -13 10 -13 10 0 0 13 1 13 10 0 9 -13 10 -13 10 0 0 13 1 13
10 0 9 -13 10 -13 10 0 0 13 1 13 10 0 9 -13 10 -13 10 0 0 13 1 13 10 0 9
-13 10 -13 10 0 0 13 1 13 10 0 9 -13 10 -13 10 0 0 13 1 13 11 0 9 -12 12
-13 16 -1 5 11 7 11 14 0 7 -12 9 -11 9 1 0 13 1 13 10 0 9 -13 10 -13 10 0 0
13 1 13 10 0 9 -13 10 -13 10 0 0 13 1 13 10 0 9 -13 10 -13 10 0 0 13 1 13
10 0 9 -13 10 -13 10 0 0 13 1 13 10 0 9 -13 10 -13 10 0 0 13 1 13 10 0 9
-13 10 -13 10 0 0 13 1 13 10 0 9 -13 10 -13 10 0 0 13 1 13 11 0 9 -12 12
-13 16 -1 5 11 7 11 14 0 7 -12 9 -11 9 1 0 13 1 13 10 0 9 -13 10 -13 10 0 0
13 1 13 10 0 9 -13 10 -13 10 0 0 13 1 13 10 0 9 -13 10 -13 10 0 0 13 1 13
10 0 9 -13 10 -13 10 0 0 13 1 13 10 0 9 -13 10 -13 10 0 0 13 1 13 10 0 9
-13 10 -13 10 0 0 13 1 13 10 0 8 -13 10 -13 10 -1 0 11 4 9 15 -5 15 -19 15
-19 30 0 11 15 15 16 16 5 0 -11 2 -11 6 0 5 11 7 11 14 0 7 -12 9 -11 9 1 0
13 1 13 10 0 9 -13 10 -13 10 0 0 13 1 13 10 0 9 -13 10 -13 10 0 0 13 1 13
10 0 9 -13 10 -13 10 0 0 13 1 13 10 0 9 -13 10 -13 10 0 0 13 1 13 10 0 9
-13 10 -13 10 0 0 13 1 13 10 0 9 -13 10 -13 10 0 0 13 1 13 11 0 9 -12 12
-13 16 -1 5 11 7 11 14 0 7 -12 9 -11 9 1 0 13 1 13 10 0 9 -13 10 -13 10 0 0
13 1 13 10 0 9 -13 10 -13 10 0 0 13 1 13 10 0 9 -13 10 -13 10 0 0 13 1 13
10 0 9 -13 10 -13 10 0 0 13 1 13 10 0 9 -13 10 -13 10 0 0 13 1 13 10 0 9
-13 10 -13 10 0 0 13 1 13 10 0 8 -13 10 -13 10 -1 0 11 4 9 15 -5 15 -19 15
-19 30 0 11 15 15 16 16 5 0 -11 2 -11 6 0 5 11 7 11 14 0 7 -12 9 -11 9 1 0
13 1 13 11 0 9 -13 10 -13 6 0 -3 13 -566 15 -4981 15 -2960 0 -4980 -4 -4983
-9 -4 -5 0 -6 7 -1 10 6 12 4 7 -8 -3 -9 0 -23 8 -31 8 -7 12 -16 9 -18 -2 -3
45 -103 105 -224 61 -120 178 -358 261 -529 84 -170 230 -467 325 -660 187
-378 462 -935 720 -1460 90 -181 279 -566 422 -855 l260 -525 164 -23 c90 -13
355 -52 589 -87 234 -35 497 -74 585 -85 88 -12 356 -51 595 -86 239 -36 512
-76 605 -89 569 -81 841 -120 1170 -169 204 -30 469 -69 590 -86 443 -62 970
-141 987 -148 17 -6 -252 -274 -1252 -1244 -459 -445 -759 -737 -915 -889
-104 -102 -520 -507 -922 -899 -596 -580 -732 -717 -728 -734 10 -46 156 -891
180 -1041 14 -88 48 -288 76 -445 48 -272 106 -611 309 -1805 50 -291 99 -577
110 -635 11 -58 56 -319 100 -580 44 -261 90 -535 103 -608 14 -72 21 -132 16
-132 -9 0 -286 144 -1029 535 -102 54 -277 146 -390 205 -113 59 -250 131
-305 160 -425 224 -676 355 -805 422 -108 57 -165 87 -420 221 -58 30 -192
100 -297 156 -106 56 -280 147 -385 202 -106 56 -285 150 -398 209 -400 209
-616 323 -662 349 l-48 26 -47 -26 c-47 -26 -263 -140 -663 -349 -113 -59
-292 -153 -398 -209 -105 -55 -279 -146 -385 -202 -105 -56 -239 -126 -297
-156 -243 -128 -311 -164 -415 -218 -179 -93 -329 -172 -515 -270 -96 -51
-229 -121 -295 -155 -66 -35 -203 -107 -305 -160 -102 -53 -277 -146 -390
-205 -225 -119 -457 -240 -798 -419 -123 -64 -227 -116 -231 -114 -4 2 23 179
60 393 165 958 306 1777 453 2645 47 272 96 560 111 639 14 79 62 356 105 615
66 391 142 831 164 947 5 24 -64 94 -722 734 -400 390 -815 794 -922 899 -160
156 -446 435 -920 894 -1000 970 -1269 1238 -1252 1244 17 7 544 86 987 148
121 17 387 56 590 86 329 49 601 88 1170 169 94 13 366 53 605 89 239 35 507
74 595 86 88 11 351 50 585 85 234 35 499 74 589 87 l164 23 250 505 c269 545
499 1011 787 1595 100 204 260 528 355 720 95 193 243 494 330 670 86 176 205
419 266 539 60 121 107 221 105 224 -3 2 1 11 9 18 8 8 11 22 8 31 -5 12 -3
14 7 8 7 -5 11 -4 7 1 -3 5 -2023 9 -4983 9 -4025 0 -4978 -2 -4980 -13 -2 -8
0 -8 3 -1 4 8 8 7 14 -2 7 -12 9 -11 9 1 0 13 1 13 10 0 8 -13 10 -13 10 -1 0
11 4 9 15 -5 15 -19 15 -19 30 0 11 15 15 16 16 5 0 -11 2 -11 6 0 5 11 7 11
14 0 7 -12 9 -11 9 1 0 13 1 13 10 0 9 -13 10 -13 10 0 0 13 1 13 10 0 9 -13
10 -13 10 0 0 13 1 13 10 0 9 -13 10 -13 10 0 0 13 1 13 10 0 9 -13 10 -13 10
0 0 13 1 13 10 0 9 -13 10 -13 10 0 0 13 1 13 10 0 9 -13 10 -13 10 0 0 13 1
13 11 0 9 -12 12 -13 16 -1 5 11 7 11 14 0 7 -12 9 -11 9 1 0 13 1 13 10 0 9
-13 10 -13 10 0 0 13 1 13 10 0 9 -13 10 -13 10 0 0 13 1 13 10 0 9 -13 10
-13 10 0 0 13 1 13 10 0 9 -13 10 -13 10 0 0 13 1 13 10 0 9 -13 10 -13 10 0
0 13 1 13 10 0 9 -13 10 -13 10 0 0 13 1 13 10 0 8 -13 10 -13 10 -1 0 11 4 9
15 -5 15 -19 15 -19 30 0 11 15 15 16 16 5 0 -11 2 -11 6 0 5 11 7 11 14 0 7
-12 9 -11 9 1 0 13 1 13 10 0 9 -13 10 -13 10 0 0 13 1 13 10 0 9 -13 10 -13
10 0 0 13 1 13 10 0 9 -13 10 -13 10 0 0 13 1 13 10 0 9 -13 10 -13 10 0 0 13
1 13 10 0 9 -13 10 -13 10 0 0 13 1 13 10 0 9 -13 10 -13 10 0 0 13 1 13 11 0
9 -12 12 -13 16 -1 5 11 7 11 14 0 7 -12 9 -11 9 1 0 13 1 13 10 0 9 -13 10
-13 10 0 0 13 1 13 10 0 9 -13 10 -13 10 0 0 13 1 13 10 0 9 -13 10 -13 10 0
0 13 1 13 10 0 9 -13 10 -13 10 0 0 13 1 13 10 0 9 -13 10 -13 10 0 0 13 1 13
10 0 9 -13 10 -13 10 0 0 13 1 13 10 0 9 -13 10 -13 10 0 0 13 1 13 11 0 9
-12 12 -13 16 -1 5 11 7 11 14 0 7 -12 9 -11 9 1 0 13 1 13 10 0 9 -13 10 -13
10 0 0 13 1 13 10 0 9 -13 10 -13 10 0 0 13 1 13 10 0 9 -13 10 -13 10 0 0 13
1 13 10 0 9 -13 10 -13 10 0 0 13 1 13 10 0 9 -13 10 -13 10 0 0 13 1 13 10 0
9 -13 10 -13 10 0 0 13 1 13 10 0 8 -13 10 -13 10 -1 0 11 4 9 15 -5 15 -19
15 -19 30 0 11 14 15 16 15 5 0 -12 2 -12 10 1 9 13 10 13 10 0 0 -13 1 -13
10 0 9 13 10 13 11 0 0 -12 2 -12 6 -1 5 11 7 11 14 0 7 -12 9 -11 9 1 0 13 1
13 10 0 9 -13 10 -13 10 0 0 13 1 13 10 0 9 -13 10 -13 10 0 0 13 1 13 10 0 9
-13 10 -13 10 0 0 13 1 13 10 0 9 -13 10 -13 10 0 0 13 1 13 11 0 9 -12 12
-13 16 -1 5 11 7 11 14 0 7 -12 9 -11 9 1 0 13 1 13 10 0 9 -13 10 -13 10 0 0
13 1 13 10 0 9 -13 10 -13 10 0 0 13 1 13 10 0 9 -13 10 -13 10 0 0 13 1 13
10 0 9 -13 10 -13 10 0 0 13 1 13 10 0 9 -13 10 -13 10 0 0 13 1 13 10 0 9
-13 10 -13 10 0 0 13 1 13 10 0 8 -13 10 -13 10 -1 0 11 4 9 15 -5 15 -19 15
-19 30 0 11 15 15 16 16 5 0 -11 2 -11 6 0 5 11 7 11 14 0 7 -12 9 -11 9 1 0
13 1 13 10 0 9 -13 10 -13 10 0 0 13 1 13 10 0 9 -13 10 -13 10 0 0 13 1 13
10 0 9 -13 10 -13 10 0 0 13 1 13 10 0 9 -13 10 -13 10 0 0 13 1 13 10 0 9
-13 10 -13 10 0 0 13 1 13 10 0 9 -13 10 -13 10 0 0 13 1 13 11 0 9 -12 12
-13 16 -1 5 11 7 11 14 0 7 -12 9 -11 9 1 0 13 1 13 10 0 9 -13 10 -13 10 0 0
13 1 13 10 0 9 -13 10 -13 10 0 0 13 1 13 10 0 9 -13 10 -13 10 0 0 13 1 13
10 0 9 -13 10 -13 10 0 0 13 1 13 10 0 9 -13 10 -13 10 0 0 13 1 13 10 0 9
-13 10 -13 10 0 0 13 1 13 10 0 8 -13 10 -13 10 -1 0 11 4 9 15 -5 15 -19 15
-19 30 0 11 15 15 16 16 5 0 -11 2 -11 6 0 5 11 7 11 14 0 7 -12 9 -11 9 1 0
13 1 13 10 0 9 -13 10 -13 10 0 0 13 1 13 10 0 9 -13 10 -13 10 0 0 13 1 13
10 0 9 -13 10 -13 10 0 0 13 1 13 10 0 9 -13 10 -13 10 0 0 13 1 13 10 0 9
-13 10 -13 10 0 0 13 1 13 10 0 9 -13 10 -13 10 0 0 13 1 13 11 0 9 -12 12
-13 16 -1 5 11 7 11 14 0 7 -12 9 -11 9 1 0 13 1 13 10 0 9 -13 10 -13 10 0 0
13 1 13 10 0 9 -13 10 -13 10 0 0 13 1 13 10 0 9 -13 10 -13 10 0 0 13 1 13
10 0 9 -13 10 -13 10 0 0 13 1 13 10 0 9 -13 10 -13 10 0 0 13 1 13 10 0 9
-13 10 -13 10 0 0 13 1 13 10 0 8 -13 10 -13 10 -1 0 11 4 9 15 -5 15 -19 15
-19 30 0 11 15 15 16 16 5 0 -11 2 -11 6 0 5 11 7 11 14 0 7 -12 9 -11 9 1 0
13 1 13 10 0 9 -13 10 -13 10 0 0 13 1 13 10 0 9 -13 10 -13 10 0 0 13 1 13
10 0 9 -13 10 -13 10 0 0 13 1 13 10 0 9 -13 10 -13 10 0 0 13 1 13 10 0 9
-13 10 -13 10 0 0 13 1 13 10 0 9 -13 10 -13 10 0 0 13 1 13 11 0 9 -12 12
-13 16 -1 5 11 7 11 14 0 7 -12 9 -11 9 1 0 13 1 13 10 0 9 -13 10 -13 10 0 0
13 1 13 10 0 9 -13 10 -13 10 0 0 13 1 13 10 0 9 -13 10 -13 10 0 0 13 1 13
10 0 9 -13 10 -13 10 0 0 13 1 13 10 0 9 -13 10 -13 10 0 0 13 1 13 10 0 9
-13 10 -13 10 0 0 13 1 13 10 0 9 -13 10 -13 10 0 0 13 1 13 11 0 9 -12 12
-13 16 -1 5 11 7 11 14 0 7 -12 9 -11 9 1 0 13 1 13 10 0 9 -13 10 -13 10 0 0
13 1 13 10 0 9 -13 10 -13 10 0 0 13 1 13 10 0 9 -13 10 -13 10 0 0 13 1 13
10 0 9 -13 10 -13 10 0 0 13 1 13 10 0 9 -13 10 -13 10 0 0 13 1 13 10 0 9
-13 10 -13 10 0 0 13 1 13 10 0 8 -13 10 -13 10 -1 0 11 4 9 15 -5 15 -19 15
-19 30 0 11 14 15 16 15 5 0 -12 2 -12 10 1 9 13 10 13 10 0 0 -13 1 -13 10 0
9 13 10 13 10 0 0 -13 1 -13 10 0 9 13 10 13 10 0 0 -13 1 -13 10 0 9 13 10
13 10 0 0 -13 1 -13 10 0 9 13 10 13 10 0 0 -13 1 -13 10 0 9 13 10 13 10 0 0
-13 1 -13 10 0 9 13 10 13 10 0 0 -12 2 -13 9 -1 7 11 10 11 15 0 5 -12 7 -12
12 0 5 11 8 11 15 0 7 -12 9 -11 9 1 0 13 1 13 10 0 9 -13 10 -13 10 0 0 13 1
13 10 0 9 -13 10 -13 10 0 0 13 1 13 10 0 9 -13 10 -13 10 0 0 13 1 13 10 0 9
-13 10 -13 10 0 0 13 1 13 10 0 9 -13 10 -13 10 0 0 13 1 13 10 0 9 -13 10
-13 10 0 0 13 1 13 10 0 8 -13 10 -13 10 -1 0 11 4 9 15 -5 15 -19 15 -19 30
0 11 15 15 16 16 5 0 -11 2 -11 6 0 5 11 7 11 14 0 7 -12 9 -11 9 1 0 13 1 13
10 0 9 -13 10 -13 10 0 0 13 1 13 10 0 9 -13 10 -13 10 0 0 13 1 13 10 0 9
-13 10 -13 10 0 0 13 1 13 10 0 9 -13 10 -13 10 0 0 13 1 13 10 0 9 -13 10
-13 10 0 0 13 1 13 10 0 9 -13 10 -13 10 0 0 13 1 13 11 0 9 -12 12 -13 16 -1
5 11 7 11 14 0 7 -12 9 -11 9 1 0 13 1 13 10 0 9 -13 10 -13 10 0 0 13 1 13
10 0 9 -13 10 -13 10 0 0 13 1 13 10 0 9 -13 10 -13 10 0 0 13 1 13 10 0 9
-13 10 -13 10 0 0 13 1 13 10 0 9 -13 10 -13 10 0 0 13 1 13 10 0 9 -13 10
-13 10 0 0 13 1 13 10 0 8 -13 10 -13 10 -1 0 11 4 9 15 -5 15 -19 15 -19 30
0 11 15 15 16 16 5 0 -11 2 -11 6 0 5 11 7 11 14 0 7 -12 9 -11 9 1 0 13 1 13
10 0 9 -13 10 -13 10 0 0 13 1 13 10 0 9 -13 10 -13 10 0 0 13 1 13 10 0 9
-13 10 -13 10 0 0 13 1 13 10 0 9 -13 10 -13 10 0 0 13 1 13 10 0 9 -13 10
-13 10 0 0 13 1 13 10 0 9 -13 10 -13 10 0 0 13 1 13 11 0 9 -12 12 -13 16 -1
5 11 7 11 14 0 7 -12 9 -11 9 1 0 13 1 13 10 0 9 -13 10 -13 10 0 0 13 1 13
10 0 9 -13 10 -13 10 0 0 13 1 13 10 0 9 -13 10 -13 10 0 0 13 1 13 10 0 9
-13 10 -13 10 0 0 13 1 13 10 0 9 -13 10 -13 10 0 0 13 1 13 10 0 9 -13 10
-13 10 0 0 13 1 13 10 0 8 -13 10 -13 10 -1 0 11 4 9 15 -5 15 -19 15 -19 30
0 11 15 15 16 16 5 0 -11 2 -11 6 0 5 11 7 11 14 0 7 -12 9 -11 9 1 0 13 1 13
10 0 9 -13 10 -13 10 0 0 13 1 13 10 0 9 -13 10 -13 10 0 0 13 1 13 10 0 9
-13 10 -13 10 0 0 13 1 13 10 0 9 -13 10 -13 10 0 0 13 1 13 10 0 8 -13 10
-13 10 -1 0 11 4 9 15 -5 15 -19 15 -19 30 0 11 15 15 16 16 5 0 -11 2 -11 6
0 5 11 7 11 14 0 7 -12 9 -11 9 1 0 13 1 13 10 0 9 -13 10 -13 10 0 0 13 1 13
10 0 9 -13 10 -13 10 0 0 13 1 13 10 0 9 -13 10 -13 10 0 0 13 1 13 10 0 9
-13 10 -13 10 0 0 13 1 13 10 0 9 -13 10 -13 10 0 0 13 1 13 10 0 9 -13 10
-13 10 0 0 13 1 13 11 0 9 -12 12 -13 16 -1 5 11 7 11 14 0 7 -12 9 -11 9 1 0
13 1 13 10 0 9 -13 10 -13 10 0 0 13 1 13 10 0 9 -13 10 -13 10 0 0 13 1 13
10 0 9 -13 10 -13 10 0 0 13 1 13 10 0 9 -13 10 -13 10 0 0 13 1 13 10 0 9
-13 10 -13 10 0 0 13 1 13 10 0 9 -13 10 -13 10 0 0 13 1 13 10 0 8 -13 10
-13 10 -1 0 11 4 9 15 -5 15 -19 15 -19 30 0 11 15 15 16 16 5 0 -11 2 -11 6
0 5 11 7 11 14 0 7 -12 9 -11 9 1 0 13 1 13 10 0 9 -13 10 -13 10 0 0 13 1 13
10 0 9 -13 10 -13 10 0 0 13 1 13 10 0 9 -13 10 -13 10 0 0 13 1 13 10 0 9
-13 10 -13 10 0 0 13 1 13 10 0 9 -13 10 -13 10 0 0 13 1 13 10 0 9 -13 10
-13 10 0 0 13 1 13 11 0 9 -12 12 -13 16 -1 5 11 7 11 14 0 7 -12 9 -11 9 1 0
13 1 13 10 0 9 -13 10 -13 10 0 0 13 1 13 10 0 9 -13 10 -13 10 0 0 13 1 13
10 0 9 -13 10 -13 10 0 0 13 1 13 10 0 9 -13 10 -13 10 0 0 13 1 13 10 0 9
-13 10 -13 10 0 0 13 1 13 10 0 9 -13 10 -13 10 0 0 13 1 13 10 0 8 -13 10
-13 10 -1 0 11 4 9 15 -5 15 -19 15 -19 30 0 11 15 15 16 16 5 0 -11 2 -11 6
0 5 11 7 11 14 0 7 -12 9 -11 9 1 0 13 1 13 10 0 9 -13 10 -13 10 0 0 13 1 13
10 0 9 -13 10 -13 10 0 0 13 1 13 10 0 9 -13 10 -13 10 0 0 13 1 13 10 0 9
-13 10 -13 10 0 0 13 1 13 10 0 9 -13 10 -13 10 0 0 13 1 13 10 0 9 -13 10
-13 10 0 0 13 1 13 11 0 9 -12 12 -13 16 -1 5 11 7 11 14 0 7 -12 9 -11 9 1 0
13 1 13 10 0 9 -13 10 -13 10 0 0 13 1 13 10 0 9 -13 10 -13 10 0 0 13 1 13
10 0 9 -13 10 -13 10 0 0 13 1 13 10 0 9 -13 10 -13 10 0 0 13 1 13 10 0 9
-13 10 -13 10 0 0 13 1 13 10 0 9 -13 10 -13 10 0 0 13 1 13 10 0 8 -13 10
-13 10 -1 0 11 4 9 15 -5 15 -19 15 -19 30 0 11 15 15 16 16 5 0 -11 2 -11 6
0 5 11 7 11 14 0 7 -12 9 -11 9 1 0 13 1 13 10 0 9 -13 10 -13 10 0 0 13 1 13
10 0 9 -13 10 -13 10 0 0 13 1 13 10 0 9 -13 10 -13 10 0 0 13 1 13 10 0 9
-13 10 -13 10 0 0 13 1 13 10 0 9 -13 10 -13 10 0 0 13 1 13 10 0 9 -13 10
-13 10 0 0 13 1 13 11 0 9 -12 12 -13 16 -1 5 11 7 11 14 0 7 -12 9 -11 9 1 0
13 1 13 10 0 9 -13 10 -13 10 0 0 13 1 13 10 0 9 -13 10 -13 10 0 0 13 1 13
10 0 9 -13 10 -13 10 0 0 13 1 13 10 0 9 -13 10 -13 10 0 0 13 1 13 10 0 9
-13 10 -13 10 0 0 13 1 13 10 0 9 -13 10 -13 10 0 0 13 1 13 10 0 8 -13 10
-13 10 -1 0 11 4 9 15 -5 15 -19 15 -19 30 0 11 15 15 16 16 5 0 -11 2 -11 6
0 5 11 7 11 14 0 7 -12 9 -11 9 1 0 13 1 13 10 0 9 -13 10 -13 10 0 0 13 1 13
10 0 9 -13 10 -13 10 0 0 13 1 13 10 0 9 -13 10 -13 10 0 0 13 1 13 10 0 9
-13 10 -13 10 0 0 13 1 13 10 0 8 -13 10 -13 10 -1 0 11 4 9 15 -5 15 -19 15
-19 30 0 11 15 15 16 16 5 0 -11 2 -11 6 0 5 11 7 11 14 0 7 -12 9 -11 9 1 0
13 1 13 10 0 9 -13 10 -13 10 0 0 13 1 13 10 0 9 -13 10 -13 10 0 0 13 1 13
10 0 9 -13 10 -13 10 0 0 13 1 13 10 0 9 -13 10 -13 10 0 0 13 1 13 10 0 9
-13 10 -13 10 0 0 13 1 13 10 0 9 -13 10 -13 10 0 0 13 1 13 11 0 9 -12 12
-13 16 -1 5 11 7 11 14 0 7 -12 9 -11 9 1 0 13 1 13 10 0 9 -13 10 -13 10 0 0
13 1 13 10 0 9 -13 10 -13 10 0 0 13 1 13 10 0 9 -13 10 -13 10 0 0 13 1 13
10 0 9 -13 10 -13 10 0 0 13 1 13 10 0 9 -13 10 -13 10 0 0 13 1 13 10 0 9
-13 10 -13 10 0 0 13 1 13 10 0 8 -13 10 -13 10 -1 0 11 4 9 15 -5 15 -19 15
-19 30 0 11 15 15 16 16 5 0 -11 2 -11 6 0 5 11 7 11 14 0 7 -12 9 -11 9 1 0
13 1 13 10 0 9 -13 10 -13 10 0 0 13 1 13 10 0 9 -13 10 -13 10 0 0 13 1 13
10 0 9 -13 10 -13 10 0 0 13 1 13 10 0 9 -13 10 -13 10 0 0 13 1 13 10 0 9
-13 10 -13 10 0 0 13 1 13 10 0 9 -13 10 -13 10 0 0 13 1 13 11 0 9 -12 12
-13 16 -1 5 11 7 11 14 0 7 -12 9 -11 9 1 0 13 1 13 10 0 9 -13 10 -13 10 0 0
13 1 13 10 0 9 -13 10 -13 10 0 0 13 1 13 10 0 9 -13 10 -13 10 0 0 13 1 13
10 0 9 -13 10 -13 10 0 0 13 1 13 10 0 9 -13 10 -13 10 0 0 13 1 13 10 0 9
-13 10 -13 10 0 0 13 1 13 10 0 8 -13 10 -13 10 -1 0 11 4 9 15 -5 15 -19 15
-19 30 0 11 15 15 16 16 5 0 -11 2 -11 6 0 5 11 7 11 14 0 7 -12 9 -11 9 1 0
13 1 13 10 0 9 -13 10 -13 10 0 0 13 1 13 10 0 9 -13 10 -13 10 0 0 13 1 13
10 0 9 -13 10 -13 10 0 0 13 1 13 10 0 9 -13 10 -13 10 0 0 13 1 13 10 0 9
-13 10 -13 10 0 0 13 1 13 10 0 9 -13 10 -13 10 0 0 13 1 13 11 0 9 -12 12
-13 16 -1 5 11 7 11 14 0 7 -12 9 -11 9 1 0 13 1 13 10 0 9 -13 10 -13 10 0 0
13 1 13 10 0 9 -13 10 -13 10 0 0 13 1 13 10 0 9 -13 10 -13 10 0 0 13 1 13
10 0 9 -13 10 -13 10 0 0 13 1 13 10 0 9 -13 10 -13 10 0 0 13 1 13 10 0 9
-13 10 -13 10 0 0 13 1 13 10 0 8 -13 10 -13 10 -1 0 11 4 9 15 -5 15 -19 15
-19 30 0 11 15 15 16 16 5 0 -11 2 -11 6 0 5 11 7 11 14 0 7 -12 9 -11 9 1 0
13 1 13 10 0 9 -13 10 -13 10 0 0 13 1 13 10 0 9 -13 10 -13 10 0 0 13 1 13
10 0 9 -13 10 -13 10 0 0 13 1 13 10 0 9 -13 10 -13 10 0 0 13 1 13 10 0 9
-13 10 -13 10 0 0 13 1 13 10 0 9 -13 10 -13 10 0 0 13 1 13 11 0 9 -12 12
-13 16 -1 5 11 7 11 14 0 7 -12 9 -11 9 1 0 13 1 13 10 0 9 -13 10 -13 10 0 0
13 1 13 10 0 9 -13 10 -13 10 0 0 13 1 13 10 0 9 -13 10 -13 10 0 0 13 1 13
10 0 9 -13 10 -13 10 0 0 13 1 13 10 0 9 -13 10 -13 10 0 0 13 1 13 10 0 9
-13 10 -13 10 0 0 13 1 13 10 0 8 -13 10 -13 10 -1 0 11 4 9 15 -5 15 -19 15
-19 30 0 11 15 15 16 16 5 0 -11 2 -11 6 0 5 11 7 11 14 0 7 -12 9 -11 9 1 0
13 1 13 10 0 9 -13 10 -13 10 0 0 13 1 13 10 0 9 -13 10 -13 10 0 0 13 1 13
10 0 9 -13 10 -13 10 0 0 13 1 13 10 0 9 -13 10 -13 10 0 0 13 1 13 10 0 8
-13 10 -13 10 -1 0 11 4 9 15 -5 15 -19 15 -19 30 0 11 15 15 16 16 5 0 -11 2
-11 6 0 5 11 7 11 14 0 7 -12 9 -11 9 1 0 13 1 13 10 0 9 -13 10 -13 10 0 0
13 1 13 10 0 9 -13 10 -13 10 0 0 13 1 13 10 0 9 -13 10 -13 10 0 0 13 1 13
10 0 9 -13 10 -13 10 0 0 13 1 13 10 0 9 -13 10 -13 10 0 0 13 1 13 10 0 9
-13 10 -13 10 0 0 13 1 13 11 0 9 -12 12 -13 16 -1 5 11 7 11 14 0 7 -12 9
-11 9 1 0 13 1 13 10 0 9 -13 10 -13 10 0 0 13 1 13 10 0 9 -13 10 -13 10 0 0
13 1 13 10 0 9 -13 10 -13 10 0 0 13 1 13 10 0 9 -13 10 -13 10 0 0 13 1 13
10 0 9 -13 10 -13 10 0 0 13 1 13 10 0 9 -13 10 -13 10 0 0 13 1 13 10 0 8
-13 10 -13 10 -1 0 11 4 9 15 -5 15 -19 15 -19 30 0 11 15 15 16 16 5 0 -11 2
-11 6 0 5 11 7 11 14 0 7 -12 9 -11 9 1 0 13 1 13 10 0 9 -13 10 -13 10 0 0
13 1 13 10 0 9 -13 10 -13 10 0 0 13 1 13 10 0 9 -13 10 -13 10 0 0 13 1 13
10 0 9 -13 10 -13 10 0 0 13 1 13 10 0 9 -13 10 -13 10 0 0 13 1 13 10 0 9
-13 10 -13 10 0 0 13 1 13 11 0 9 -12 12 -13 16 -1 5 11 7 11 14 0 7 -12 9
-11 9 1 0 13 1 13 10 0 9 -13 10 -13 10 0 0 13 1 13 10 0 9 -13 10 -13 10 0 0
13 1 13 10 0 9 -13 10 -13 10 0 0 13 1 13 10 0 9 -13 10 -13 10 0 0 13 1 13
10 0 9 -13 10 -13 10 0 0 13 1 13 10 0 9 -13 10 -13 10 0 0 13 1 13 10 0 8
-13 10 -13 10 -1 0 11 4 9 15 -5 15 -19 15 -19 30 0 11 15 15 16 16 5 0 -11 2
-11 6 0 5 11 7 11 14 0 7 -12 9 -11 9 1 0 13 1 13 10 0 9 -13 10 -13 10 0 0
13 1 13 10 0 9 -13 10 -13 10 0 0 13 1 13 10 0 9 -13 10 -13 10 0 0 13 1 13
10 0 9 -13 10 -13 10 0 0 13 1 13 10 0 9 -13 10 -13 10 0 0 13 1 13 10 0 9
-13 10 -13 10 0 0 13 1 13 11 0 9 -12 12 -13 16 -1 5 11 7 11 14 0 7 -12 9
-11 9 1 0 13 1 13 10 0 9 -13 10 -13 10 0 0 13 1 13 10 0 9 -13 10 -13 10 0 0
13 1 13 10 0 9 -13 10 -13 10 0 0 13 1 13 10 0 9 -13 10 -13 10 0 0 13 1 13
10 0 9 -13 10 -13 10 0 0 13 1 13 10 0 9 -13 10 -13 10 0 0 13 1 13 10 0 8
-13 10 -13 10 -1 0 11 4 9 15 -5 15 -19 15 -19 30 0 11 15 15 16 16 5 0 -11 2
-11 6 0 5 11 7 11 14 0 7 -12 9 -11 9 1 0 13 1 13 10 0 9 -13 10 -13 10 0 0
13 1 13 10 0 9 -13 10 -13 10 0 0 13 1 13 10 0 9 -13 10 -13 10 0 0 13 1 13
10 0 9 -13 10 -13 10 0 0 13 1 13 10 0 9 -13 10 -13 10 0 0 13 1 13 10 0 9
-13 10 -13 10 0 0 13 1 13 11 0 9 -12 12 -13 16 -1 5 11 7 11 14 0 7 -12 9
-11 9 1 0 13 1 13 10 0 9 -13 10 -13 10 0 0 13 1 13 10 0 9 -13 10 -13 10 0 0
13 1 13 10 0 9 -13 10 -13 10 0 0 13 1 13 10 0 9 -13 10 -13 10 0 0 13 1 13
10 0 9 -13 10 -13 10 0 0 13 1 13 10 0 9 -13 10 -13 10 0 0 13 1 13 10 0 9
-13 10 -13 10 0 0 13 1 13 11 0 9 -12 12 -13 16 -1 5 11 7 11 14 0 7 -12 9
-11 9 1 0 13 1 13 10 0 9 -13 10 -13 10 0 0 13 1 13 10 0 9 -13 10 -13 10 0 0
13 1 13 10 0 9 -13 10 -13 10 0 0 13 1 13 10 0 9 -13 10 -13 10 0 0 13 1 13
10 0 9 -13 10 -13 10 0 0 13 1 13 10 0 9 -13 10 -13 10 0 0 13 1 13 10 0 8
-13 10 -13 10 -1 0 11 4 9 15 -5 15 -19 15 -19 30 0 11 15 15 16 16 5 0 -11 2
-11 6 0 5 11 7 11 14 0 7 -12 9 -11 9 1 0 13 1 13 10 0 9 -13 10 -13 10 0 0
13 1 13 10 0 9 -13 10 -13 10 0 0 13 1 13 10 0 9 -13 10 -13 10 0 0 13 1 13
10 0 9 -13 10 -13 10 0 0 13 1 13 10 0 9 -13 10 -13 10 0 0 13 1 13 10 0 9
-13 10 -13 10 0 0 13 1 13 10 0 9 -13 11 -13 20 0 9 13 10 13 10 0 0 -13 1
-13 10 0 9 13 10 13 10 0 0 -13 1 -13 10 0 9 13 10 13 10 0 0 -13 1 -13 10 0
9 13 10 13 10 0 0 -13 1 -13 10 0 9 13 10 13 10 0 0 -13 2 -13 11 0 9 13 10
12 5 -3 -4 -13 -2 -16 7 -11 7 4 9 3 4 -2 -5 -5 -2007 -9 -4982 -9 l-4974 0
-1 1147 c-1 1265 -1 1265 61 1450 92 273 239 480 461 648 143 108 377 205 561
234 79 12 1353 14 9182 12 8729 -1 9093 -2 9165 -19z m-19330 -3447 c0 -5 -4
-10 -10 -10 -5 0 -10 5 -10 10 0 6 5 10 10 10 6 0 10 -4 10 -10z m400 0 c0 -5
-4 -10 -10 -10 -5 0 -10 5 -10 10 0 6 5 10 10 10 6 0 10 -4 10 -10z m590 0 c0
-5 -4 -10 -10 -10 -5 0 -10 5 -10 10 0 6 5 10 10 10 6 0 10 -4 10 -10z m400 0
c0 -5 -4 -10 -10 -10 -5 0 -10 5 -10 10 0 6 5 10 10 10 6 0 10 -4 10 -10z
m400 0 c0 -5 -4 -10 -10 -10 -5 0 -10 5 -10 10 0 6 5 10 10 10 6 0 10 -4 10
-10z m400 0 c0 -5 -4 -10 -10 -10 -5 0 -10 5 -10 10 0 6 5 10 10 10 6 0 10 -4
10 -10z m590 0 c0 -5 -4 -10 -10 -10 -5 0 -10 5 -10 10 0 6 5 10 10 10 6 0 10
-4 10 -10z m400 0 c0 -5 -4 -10 -10 -10 -5 0 -10 5 -10 10 0 6 5 10 10 10 6 0
10 -4 10 -10z m400 0 c0 -5 -4 -10 -10 -10 -5 0 -10 5 -10 10 0 6 5 10 10 10
6 0 10 -4 10 -10z m400 0 c0 -5 -4 -10 -10 -10 -5 0 -10 5 -10 10 0 6 5 10 10
10 6 0 10 -4 10 -10z m190 0 c0 -5 -4 -10 -10 -10 -5 0 -10 5 -10 10 0 6 5 10
10 10 6 0 10 -4 10 -10z m400 0 c0 -5 -4 -10 -10 -10 -5 0 -10 5 -10 10 0 6 5
10 10 10 6 0 10 -4 10 -10z m400 0 c0 -5 -4 -10 -10 -10 -5 0 -10 5 -10 10 0
6 5 10 10 10 6 0 10 -4 10 -10z m400 0 c0 -5 -4 -10 -10 -10 -5 0 -10 5 -10
10 0 6 5 10 10 10 6 0 10 -4 10 -10z m400 0 c0 -5 -4 -10 -10 -10 -5 0 -10 5
-10 10 0 6 5 10 10 10 6 0 10 -4 10 -10z m190 0 c0 -5 -4 -10 -10 -10 -5 0
-10 5 -10 10 0 6 5 10 10 10 6 0 10 -4 10 -10z m400 0 c0 -5 -4 -10 -10 -10
-5 0 -10 5 -10 10 0 6 5 10 10 10 6 0 10 -4 10 -10z m400 0 c0 -5 -4 -10 -10
-10 -5 0 -10 5 -10 10 0 6 5 10 10 10 6 0 10 -4 10 -10z m400 0 c0 -5 -4 -10
-10 -10 -5 0 -10 5 -10 10 0 6 5 10 10 10 6 0 10 -4 10 -10z m400 0 c0 -5 -4
-10 -10 -10 -5 0 -10 5 -10 10 0 6 5 10 10 10 6 0 10 -4 10 -10z m190 0 c0 -5
-4 -10 -10 -10 -5 0 -10 5 -10 10 0 6 5 10 10 10 6 0 10 -4 10 -10z m400 0 c0
-5 -4 -10 -10 -10 -5 0 -10 5 -10 10 0 6 5 10 10 10 6 0 10 -4 10 -10z m400 0
c0 -5 -4 -10 -10 -10 -5 0 -10 5 -10 10 0 6 5 10 10 10 6 0 10 -4 10 -10z
m400 0 c0 -5 -4 -10 -10 -10 -5 0 -10 5 -10 10 0 6 5 10 10 10 6 0 10 -4 10
-10z m590 0 c0 -5 -4 -10 -10 -10 -5 0 -10 5 -10 10 0 6 5 10 10 10 6 0 10 -4
10 -10z m1200 0 c0 -5 -4 -10 -10 -10 -5 0 -10 5 -10 10 0 6 5 10 10 10 6 0
10 -4 10 -10z m590 0 c0 -5 -4 -10 -10 -10 -5 0 -10 5 -10 10 0 6 5 10 10 10
6 0 10 -4 10 -10z m400 0 c0 -5 -4 -10 -10 -10 -5 0 -10 5 -10 10 0 6 5 10 10
10 6 0 10 -4 10 -10z m400 0 c0 -5 -4 -10 -10 -10 -5 0 -10 5 -10 10 0 6 5 10
10 10 6 0 10 -4 10 -10z m400 0 c0 -5 -4 -10 -10 -10 -5 0 -10 5 -10 10 0 6 5
10 10 10 6 0 10 -4 10 -10z m190 0 c0 -5 -4 -10 -10 -10 -5 0 -10 5 -10 10 0
6 5 10 10 10 6 0 10 -4 10 -10z m400 0 c0 -5 -4 -10 -10 -10 -5 0 -10 5 -10
10 0 6 5 10 10 10 6 0 10 -4 10 -10z m400 0 c0 -5 -4 -10 -10 -10 -5 0 -10 5
-10 10 0 6 5 10 10 10 6 0 10 -4 10 -10z m400 0 c0 -5 -4 -10 -10 -10 -5 0
-10 5 -10 10 0 6 5 10 10 10 6 0 10 -4 10 -10z m400 0 c0 -5 -4 -10 -10 -10
-5 0 -10 5 -10 10 0 6 5 10 10 10 6 0 10 -4 10 -10z m190 0 c0 -5 -4 -10 -10
-10 -5 0 -10 5 -10 10 0 6 5 10 10 10 6 0 10 -4 10 -10z m400 0 c0 -5 -4 -10
-10 -10 -5 0 -10 5 -10 10 0 6 5 10 10 10 6 0 10 -4 10 -10z m400 0 c0 -5 -4
-10 -10 -10 -5 0 -10 5 -10 10 0 6 5 10 10 10 6 0 10 -4 10 -10z m400 0 c0 -5
-4 -10 -10 -10 -5 0 -10 5 -10 10 0 6 5 10 10 10 6 0 10 -4 10 -10z m400 0 c0
-5 -4 -10 -10 -10 -5 0 -10 5 -10 10 0 6 5 10 10 10 6 0 10 -4 10 -10z m190 0
c0 -5 -4 -10 -10 -10 -5 0 -10 5 -10 10 0 6 5 10 10 10 6 0 10 -4 10 -10z
m400 0 c0 -5 -4 -10 -10 -10 -5 0 -10 5 -10 10 0 6 5 10 10 10 6 0 10 -4 10
-10z m400 0 c0 -5 -4 -10 -10 -10 -5 0 -10 5 -10 10 0 6 5 10 10 10 6 0 10 -4
10 -10z m400 0 c0 -5 -4 -10 -10 -10 -5 0 -10 5 -10 10 0 6 5 10 10 10 6 0 10
-4 10 -10z m590 0 c0 -5 -4 -10 -10 -10 -5 0 -10 5 -10 10 0 6 5 10 10 10 6 0
10 -4 10 -10z m400 0 c0 -5 -4 -10 -10 -10 -5 0 -10 5 -10 10 0 6 5 10 10 10
6 0 10 -4 10 -10z m400 0 c0 -5 -4 -10 -10 -10 -5 0 -10 5 -10 10 0 6 5 10 10
10 6 0 10 -4 10 -10z m400 0 c0 -5 -4 -10 -10 -10 -5 0 -10 5 -10 10 0 6 5 10
10 10 6 0 10 -4 10 -10z m590 0 c0 -5 -4 -10 -10 -10 -5 0 -10 5 -10 10 0 6 5
10 10 10 6 0 10 -4 10 -10z m400 0 c0 -5 -4 -10 -10 -10 -5 0 -10 5 -10 10 0
6 5 10 10 10 6 0 10 -4 10 -10z"/>
</g>
</svg>
